<svg height="512pt" viewBox="0 0 512 512" width="512pt" xmlns="http://www.w3.org/2000/svg"><path d="m482 45c-16.570312 0-30 13.429688-30 30v154.804688l-266 232.195312 70 50h181v-70l75-149.5v-217.5c0-16.570312-13.429688-30-30-30zm0 0" fill="#fc986d"/><path d="m443.214844 208.785156c-11.71875-11.714844-30.710938-11.714844-42.429688 0l-127.253906 127.253906c-10.851562 10.859376-17.53125 25.894532-17.53125 42.460938l-30 51.75 30 51.75c49.707031 0 90-40.292969 90-90v-43.574219l97.214844-97.210937c11.714844-11.71875 11.714844-30.710938 0-42.429688zm0 0" fill="#fcb57f"/><path d="m195.5 347.925781-135.5-118.121093v-154.804688c0-16.570312-13.429688-30-30-30s-30 13.429688-30 30v217.5l75 149.5v70h181v-30zm0 0" fill="#fcb57f"/><path d="m238.46875 336.039062-127.253906-127.253906c-11.71875-11.714844-30.710938-11.714844-42.429688 0-11.714844 11.71875-11.714844 30.710938 0 42.429688l97.214844 97.210937v43.574219c0 49.707031 40.292969 90 90 90v-103.5c0-16.566406-6.679688-31.601562-17.53125-42.460938zm0 0" fill="#fbd291"/><path d="m367.328125 61.472656c-2.316406-2.316406-4.882813-4.582031-7.625-6.734375l-4.078125-3.203125h-199.625l100 240.398438 111.324219-111.328125c32.847656-32.84375 32.847656-86.289063.003906-119.132813zm0 0" fill="#ff3a33"/><path d="m156.375 51.535156-4.078125 3.199219c-2.742187 2.15625-5.308594 4.421875-7.625 6.738281-32.84375 32.847656-32.84375 86.289063 0 119.136719l111.328125 111.324219v-240.398438zm0 0" fill="#fe5e49"/><path d="m345.269531 20.230469c-13.046875-13.046875-30.394531-20.230469-48.847656-20.230469-14.71875 0-28.730469 4.570312-40.421875 13.042969l-50 56.03125 50 138.113281 89.269531-89.265625c13.046875-13.046875 20.230469-30.394531 20.230469-48.847656 0-18.449219-7.183594-35.796875-20.230469-48.84375zm0 0" fill="#c6415d"/><path d="m255.992188 13.050781c-26.984376-19.488281-64.984376-17.09375-89.261719 7.179688-13.046875 13.046875-20.230469 30.394531-20.230469 48.847656 0 18.449219 7.183594 35.796875 20.230469 48.84375l89.269531 89.265625s0-194.144531-.007812-194.136719zm0 0" fill="#ff3a33"/></svg>